<svg xmlns="http://www.w3.org/2000/svg" viewBox="-1.5 -1.5 19.667 19.667" fill="none">
  <path d="M 13.939 10.606 L 14.702 10.943 L 14.705 10.934 L 13.939 10.606 Z M 14.189 11.985 L 13.594 12.568 L 13.6 12.574 L 14.189 11.985 Z M 14.235 12.03 L 13.646 12.62 L 13.646 12.62 L 14.235 12.03 Z M 14.235 14.174 L 13.646 13.585 L 13.645 13.585 L 14.235 14.174 Z M 12.091 14.174 L 12.68 13.585 L 12.68 13.585 L 12.091 14.174 Z M 12.045 14.129 L 12.635 13.539 L 12.628 13.533 L 12.045 14.129 Z M 10.667 13.879 L 10.995 14.645 L 11.003 14.641 L 10.667 13.879 Z M 9.909 15.023 L 9.076 15.019 L 9.076 15.023 L 9.909 15.023 Z M 6.879 15.083 L 7.712 15.083 C 7.712 15.077 7.712 15.07 7.712 15.064 L 6.879 15.083 Z M 6.061 13.939 L 5.724 14.702 C 5.74 14.709 5.756 14.715 5.773 14.722 L 6.061 13.939 Z M 4.682 14.189 L 4.099 13.594 L 4.093 13.6 L 4.682 14.189 Z M 4.636 14.235 L 4.047 13.646 L 4.047 13.646 L 4.636 14.235 Z M 2.492 14.235 L 3.082 13.646 L 3.081 13.645 L 2.492 14.235 Z M 2.048 13.163 L 2.881 13.163 L 2.048 13.163 Z M 2.492 12.091 L 3.081 12.68 L 3.082 12.68 L 2.492 12.091 Z M 2.538 12.045 L 3.127 12.635 L 3.134 12.628 L 2.538 12.045 Z M 2.788 10.667 L 2.022 10.995 L 2.025 11.003 L 2.788 10.667 Z M 1.644 9.909 L 1.647 9.076 L 1.644 9.076 L 1.644 9.909 Z M 0 8.394 L -0.833 8.394 L 0 8.394 Z M 1.515 6.879 L 1.515 7.712 L 1.515 6.879 Z M 1.583 6.879 L 1.583 7.712 C 1.59 7.712 1.596 7.712 1.603 7.712 L 1.583 6.879 Z M 2.727 6.061 L 1.965 5.724 C 1.958 5.74 1.951 5.756 1.945 5.773 L 2.727 6.061 Z M 2.477 4.682 L 3.073 4.099 L 3.067 4.093 L 2.477 4.682 Z M 2.432 4.636 L 3.021 4.047 L 3.021 4.047 L 2.432 4.636 Z M 2.432 2.492 L 3.021 3.082 L 3.021 3.081 L 2.432 2.492 Z M 4.576 2.492 L 3.986 3.081 L 3.987 3.082 L 4.576 2.492 Z M 4.621 2.538 L 4.032 3.127 L 4.038 3.134 L 4.621 2.538 Z M 6 2.788 L 6 1.955 C 5.884 1.955 5.77 1.979 5.664 2.025 L 6 2.788 Z M 6.061 2.788 L 6.061 3.621 C 6.173 3.621 6.285 3.598 6.389 3.554 L 6.061 2.788 Z M 6.818 1.644 L 7.652 1.647 L 7.652 1.644 L 6.818 1.644 Z M 8.333 0 L 8.333 -0.833 L 8.333 0 Z M 9.848 1.583 L 9.015 1.583 L 9.015 1.587 L 9.848 1.583 Z M 10.606 2.727 L 10.943 1.965 L 10.934 1.961 L 10.606 2.727 Z M 11.985 2.477 L 12.568 3.073 L 12.574 3.067 L 11.985 2.477 Z M 12.03 2.432 L 12.62 3.021 L 12.62 3.021 L 12.03 2.432 Z M 13.102 1.987 L 13.102 2.821 L 13.102 1.987 Z M 14.174 2.432 L 13.585 3.021 L 13.585 3.021 L 14.174 2.432 Z M 14.174 4.576 L 13.585 3.986 L 13.585 3.987 L 14.174 4.576 Z M 14.129 4.621 L 13.539 4.032 L 13.533 4.038 L 14.129 4.621 Z M 13.879 6 L 14.712 6 C 14.712 5.884 14.688 5.77 14.641 5.664 L 13.879 6 Z M 13.879 6.061 L 13.045 6.061 C 13.045 6.173 13.068 6.285 13.113 6.389 L 13.879 6.061 Z M 15.023 6.818 L 15.019 7.652 L 15.023 7.652 L 15.023 6.818 Z M 15.083 9.848 L 15.083 9.015 L 15.08 9.015 L 15.083 9.848 Z M 10.833 8.333 L 10 8.333 C 10 9.254 9.254 10 8.333 10 L 8.333 10.833 L 8.333 11.667 C 10.174 11.667 11.667 10.174 11.667 8.333 L 10.833 8.333 Z M 8.333 10.833 L 8.333 10 C 7.413 10 6.667 9.254 6.667 8.333 L 5.833 8.333 L 5 8.333 C 5 10.174 6.492 11.667 8.333 11.667 L 8.333 10.833 Z M 5.833 8.333 L 6.667 8.333 C 6.667 7.413 7.413 6.667 8.333 6.667 L 8.333 5.833 L 8.333 5 C 6.492 5 5 6.492 5 8.333 L 5.833 8.333 Z M 8.333 5.833 L 8.333 6.667 C 9.254 6.667 10 7.413 10 8.333 L 10.833 8.333 L 11.667 8.333 C 11.667 6.492 10.174 5 8.333 5 L 8.333 5.833 Z M 13.939 10.606 L 13.177 10.27 C 13.009 10.65 12.959 11.073 13.033 11.482 L 13.853 11.334 L 14.673 11.185 C 14.658 11.103 14.668 11.019 14.702 10.943 L 13.939 10.606 Z M 13.853 11.334 L 13.033 11.482 C 13.107 11.892 13.303 12.27 13.594 12.568 L 14.189 11.985 L 14.785 11.402 C 14.727 11.343 14.688 11.267 14.673 11.185 L 13.853 11.334 Z M 14.189 11.985 L 13.6 12.574 L 13.646 12.62 L 14.235 12.03 L 14.824 11.441 L 14.779 11.396 L 14.189 11.985 Z M 14.235 12.03 L 13.646 12.62 C 13.709 12.683 13.76 12.758 13.794 12.841 L 14.564 12.522 L 15.334 12.203 C 15.215 11.918 15.042 11.659 14.824 11.441 L 14.235 12.03 Z M 14.564 12.522 L 13.794 12.841 C 13.828 12.924 13.846 13.013 13.846 13.102 L 14.679 13.102 L 15.513 13.102 C 15.513 12.794 15.452 12.488 15.334 12.203 L 14.564 12.522 Z M 14.679 13.102 L 13.846 13.102 C 13.846 13.192 13.828 13.281 13.794 13.363 L 14.564 13.682 L 15.334 14.002 C 15.452 13.716 15.513 13.411 15.513 13.102 L 14.679 13.102 Z M 14.564 13.682 L 13.794 13.363 C 13.76 13.446 13.709 13.521 13.646 13.585 L 14.235 14.174 L 14.824 14.764 C 15.042 14.546 15.215 14.287 15.334 14.002 L 14.564 13.682 Z M 14.235 14.174 L 13.645 13.585 C 13.582 13.649 13.507 13.699 13.424 13.733 L 13.743 14.503 L 14.062 15.273 C 14.347 15.155 14.606 14.982 14.824 14.763 L 14.235 14.174 Z M 13.743 14.503 L 13.424 13.733 C 13.341 13.768 13.252 13.785 13.163 13.785 L 13.163 14.619 L 13.163 15.452 C 13.472 15.452 13.777 15.391 14.062 15.273 L 13.743 14.503 Z M 13.163 14.619 L 13.163 13.785 C 13.073 13.785 12.985 13.768 12.902 13.733 L 12.583 14.503 L 12.264 15.273 C 12.549 15.391 12.854 15.452 13.163 15.452 L 13.163 14.619 Z M 12.583 14.503 L 12.902 13.733 C 12.819 13.699 12.744 13.649 12.68 13.585 L 12.091 14.174 L 11.501 14.763 C 11.719 14.982 11.978 15.155 12.264 15.273 L 12.583 14.503 Z M 12.091 14.174 L 12.68 13.585 L 12.635 13.54 L 12.045 14.129 L 11.456 14.718 L 11.502 14.763 L 12.091 14.174 Z M 12.045 14.129 L 12.628 13.533 C 12.331 13.242 11.953 13.047 11.543 12.972 L 11.394 13.792 L 11.246 14.612 C 11.328 14.627 11.403 14.666 11.463 14.725 L 12.045 14.129 Z M 11.394 13.792 L 11.543 12.972 C 11.133 12.898 10.711 12.948 10.33 13.116 L 10.667 13.879 L 11.003 14.641 C 11.079 14.608 11.164 14.598 11.246 14.612 L 11.394 13.792 Z M 10.667 13.879 L 10.338 13.113 C 9.965 13.273 9.646 13.539 9.422 13.877 L 10.117 14.338 L 10.812 14.798 C 10.857 14.73 10.92 14.677 10.995 14.645 L 10.667 13.879 Z M 10.117 14.338 L 9.422 13.877 C 9.198 14.216 9.077 14.613 9.076 15.019 L 9.909 15.023 L 10.742 15.026 C 10.743 14.945 10.767 14.865 10.812 14.798 L 10.117 14.338 Z M 9.909 15.023 L 9.076 15.023 L 9.076 15.152 L 9.909 15.152 L 10.742 15.152 L 10.742 15.023 L 9.909 15.023 Z M 9.909 15.152 L 9.076 15.152 C 9.076 15.332 9.004 15.506 8.876 15.634 L 9.465 16.223 L 10.055 16.812 C 10.495 16.372 10.742 15.774 10.742 15.152 L 9.909 15.152 Z M 9.465 16.223 L 8.876 15.634 C 8.748 15.761 8.575 15.833 8.394 15.833 L 8.394 16.667 L 8.394 17.5 C 9.017 17.5 9.614 17.253 10.055 16.812 L 9.465 16.223 Z M 8.394 16.667 L 8.394 15.833 C 8.213 15.833 8.04 15.761 7.912 15.634 L 7.323 16.223 L 6.733 16.812 C 7.174 17.253 7.771 17.5 8.394 17.5 L 8.394 16.667 Z M 7.323 16.223 L 7.912 15.634 C 7.784 15.506 7.712 15.332 7.712 15.152 L 6.879 15.152 L 6.045 15.152 C 6.045 15.774 6.293 16.372 6.733 16.812 L 7.323 16.223 Z M 6.879 15.152 L 7.712 15.152 L 7.712 15.083 L 6.879 15.083 L 6.045 15.083 L 6.045 15.152 L 6.879 15.152 Z M 6.879 15.083 L 7.712 15.064 C 7.702 14.646 7.567 14.241 7.324 13.901 L 6.646 14.385 L 5.968 14.87 C 6.017 14.938 6.044 15.019 6.046 15.103 L 6.879 15.083 Z M 6.646 14.385 L 7.324 13.901 C 7.08 13.561 6.741 13.302 6.348 13.157 L 6.061 13.939 L 5.773 14.722 C 5.851 14.75 5.919 14.802 5.968 14.87 L 6.646 14.385 Z M 6.061 13.939 L 6.397 13.177 C 6.016 13.009 5.594 12.959 5.184 13.033 L 5.333 13.853 L 5.482 14.673 C 5.563 14.658 5.648 14.668 5.724 14.702 L 6.061 13.939 Z M 5.333 13.853 L 5.184 13.033 C 4.775 13.107 4.397 13.303 4.099 13.594 L 4.682 14.189 L 5.265 14.785 C 5.324 14.727 5.4 14.688 5.482 14.673 L 5.333 13.853 Z M 4.682 14.189 L 4.093 13.6 L 4.047 13.646 L 4.636 14.235 L 5.226 14.824 L 5.271 14.779 L 4.682 14.189 Z M 4.636 14.235 L 4.047 13.646 C 3.983 13.709 3.908 13.76 3.825 13.794 L 4.145 14.564 L 4.464 15.334 C 4.749 15.215 5.008 15.042 5.226 14.824 L 4.636 14.235 Z M 4.145 14.564 L 3.825 13.794 C 3.743 13.828 3.654 13.846 3.564 13.846 L 3.564 14.679 L 3.564 15.513 C 3.873 15.513 4.179 15.452 4.464 15.334 L 4.145 14.564 Z M 3.564 14.679 L 3.564 13.846 C 3.475 13.846 3.386 13.828 3.303 13.794 L 2.984 14.564 L 2.665 15.334 C 2.95 15.452 3.256 15.513 3.564 15.513 L 3.564 14.679 Z M 2.984 14.564 L 3.303 13.794 C 3.221 13.76 3.145 13.709 3.082 13.646 L 2.492 14.235 L 1.903 14.824 C 2.121 15.042 2.38 15.215 2.665 15.334 L 2.984 14.564 Z M 2.492 14.235 L 3.081 13.645 C 3.018 13.582 2.968 13.507 2.933 13.424 L 2.164 13.743 L 1.394 14.062 C 1.512 14.347 1.685 14.606 1.903 14.824 L 2.492 14.235 Z M 2.164 13.743 L 2.933 13.424 C 2.899 13.341 2.881 13.252 2.881 13.163 L 2.048 13.163 L 1.215 13.163 C 1.215 13.472 1.276 13.777 1.394 14.062 L 2.164 13.743 Z M 2.048 13.163 L 2.881 13.163 C 2.881 13.073 2.899 12.985 2.933 12.902 L 2.164 12.583 L 1.394 12.264 C 1.276 12.549 1.215 12.854 1.215 13.163 L 2.048 13.163 Z M 2.164 12.583 L 2.933 12.902 C 2.968 12.819 3.018 12.744 3.081 12.68 L 2.492 12.091 L 1.903 11.501 C 1.685 11.719 1.512 11.978 1.394 12.264 L 2.164 12.583 Z M 2.492 12.091 L 3.082 12.68 L 3.127 12.635 L 2.538 12.045 L 1.949 11.456 L 1.903 11.502 L 2.492 12.091 Z M 2.538 12.045 L 3.134 12.628 C 3.425 12.331 3.62 11.953 3.694 11.543 L 2.874 11.394 L 2.054 11.246 C 2.039 11.328 2 11.403 1.942 11.463 L 2.538 12.045 Z M 2.874 11.394 L 3.694 11.543 C 3.768 11.133 3.718 10.711 3.55 10.33 L 2.788 10.667 L 2.025 11.003 C 2.059 11.079 2.069 11.164 2.054 11.246 L 2.874 11.394 Z M 2.788 10.667 L 3.554 10.338 C 3.394 9.965 3.128 9.646 2.789 9.422 L 2.329 10.117 L 1.869 10.812 C 1.937 10.857 1.99 10.92 2.022 10.995 L 2.788 10.667 Z M 2.329 10.117 L 2.789 9.422 C 2.451 9.198 2.054 9.077 1.647 9.076 L 1.644 9.909 L 1.641 10.742 C 1.722 10.743 1.801 10.767 1.869 10.812 L 2.329 10.117 Z M 1.644 9.909 L 1.644 9.076 L 1.515 9.076 L 1.515 9.909 L 1.515 10.742 L 1.644 10.742 L 1.644 9.909 Z M 1.515 9.909 L 1.515 9.076 C 1.334 9.076 1.161 9.004 1.033 8.876 L 0.444 9.465 L -0.145 10.055 C 0.295 10.495 0.892 10.742 1.515 10.742 L 1.515 9.909 Z M 0.444 9.465 L 1.033 8.876 C 0.905 8.748 0.833 8.575 0.833 8.394 L 0 8.394 L -0.833 8.394 C -0.833 9.017 -0.586 9.614 -0.145 10.055 L 0.444 9.465 Z M 0 8.394 L 0.833 8.394 C 0.833 8.213 0.905 8.04 1.033 7.912 L 0.444 7.323 L -0.145 6.733 C -0.586 7.174 -0.833 7.771 -0.833 8.394 L 0 8.394 Z M 0.444 7.323 L 1.033 7.912 C 1.161 7.784 1.334 7.712 1.515 7.712 L 1.515 6.879 L 1.515 6.045 C 0.892 6.045 0.295 6.293 -0.145 6.733 L 0.444 7.323 Z M 1.515 6.879 L 1.515 7.712 L 1.583 7.712 L 1.583 6.879 L 1.583 6.045 L 1.515 6.045 L 1.515 6.879 Z M 1.583 6.879 L 1.603 7.712 C 2.021 7.702 2.426 7.567 2.766 7.324 L 2.281 6.646 L 1.796 5.968 C 1.728 6.017 1.647 6.044 1.564 6.046 L 1.583 6.879 Z M 2.281 6.646 L 2.766 7.324 C 3.106 7.08 3.365 6.741 3.509 6.348 L 2.727 6.061 L 1.945 5.773 C 1.916 5.851 1.865 5.919 1.796 5.968 L 2.281 6.646 Z M 2.727 6.061 L 3.49 6.397 C 3.658 6.016 3.708 5.594 3.634 5.184 L 2.814 5.333 L 1.994 5.482 C 2.009 5.563 1.999 5.648 1.965 5.724 L 2.727 6.061 Z M 2.814 5.333 L 3.634 5.184 C 3.559 4.775 3.364 4.397 3.073 4.099 L 2.477 4.682 L 1.882 5.265 C 1.94 5.324 1.979 5.4 1.994 5.482 L 2.814 5.333 Z M 2.477 4.682 L 3.067 4.093 L 3.021 4.047 L 2.432 4.636 L 1.843 5.226 L 1.888 5.271 L 2.477 4.682 Z M 2.432 4.636 L 3.021 4.047 C 2.957 3.983 2.907 3.908 2.873 3.825 L 2.103 4.145 L 1.333 4.464 C 1.451 4.749 1.625 5.008 1.843 5.226 L 2.432 4.636 Z M 2.103 4.145 L 2.873 3.825 C 2.838 3.743 2.821 3.654 2.821 3.564 L 1.987 3.564 L 1.154 3.564 C 1.154 3.873 1.215 4.179 1.333 4.464 L 2.103 4.145 Z M 1.987 3.564 L 2.821 3.564 C 2.821 3.475 2.838 3.386 2.873 3.303 L 2.103 2.984 L 1.333 2.665 C 1.215 2.95 1.154 3.256 1.154 3.564 L 1.987 3.564 Z M 2.103 2.984 L 2.873 3.303 C 2.907 3.221 2.957 3.145 3.021 3.082 L 2.432 2.492 L 1.843 1.903 C 1.625 2.121 1.451 2.38 1.333 2.665 L 2.103 2.984 Z M 2.432 2.492 L 3.021 3.081 C 3.085 3.018 3.16 2.968 3.243 2.933 L 2.924 2.164 L 2.604 1.394 C 2.319 1.512 2.06 1.685 1.842 1.903 L 2.432 2.492 Z M 2.924 2.164 L 3.243 2.933 C 3.325 2.899 3.414 2.881 3.504 2.881 L 3.504 2.048 L 3.504 1.215 C 3.195 1.215 2.89 1.276 2.604 1.394 L 2.924 2.164 Z M 3.504 2.048 L 3.504 2.881 C 3.593 2.881 3.682 2.899 3.765 2.933 L 4.084 2.164 L 4.403 1.394 C 4.118 1.276 3.812 1.215 3.504 1.215 L 3.504 2.048 Z M 4.084 2.164 L 3.765 2.933 C 3.848 2.968 3.923 3.018 3.986 3.081 L 4.576 2.492 L 5.165 1.903 C 4.947 1.685 4.688 1.512 4.403 1.394 L 4.084 2.164 Z M 4.576 2.492 L 3.987 3.082 L 4.032 3.127 L 4.621 2.538 L 5.21 1.949 L 5.165 1.903 L 4.576 2.492 Z M 4.621 2.538 L 4.038 3.134 C 4.336 3.425 4.714 3.62 5.124 3.694 L 5.272 2.874 L 5.421 2.054 C 5.339 2.039 5.263 2 5.204 1.942 L 4.621 2.538 Z M 5.272 2.874 L 5.124 3.694 C 5.533 3.768 5.956 3.718 6.336 3.55 L 6 2.788 L 5.664 2.025 C 5.587 2.059 5.503 2.069 5.421 2.054 L 5.272 2.874 Z M 6 2.788 L 6 3.621 L 6.061 3.621 L 6.061 2.788 L 6.061 1.955 L 6 1.955 L 6 2.788 Z M 6.061 2.788 L 6.389 3.554 C 6.762 3.394 7.081 3.128 7.305 2.789 L 6.61 2.329 L 5.916 1.869 C 5.871 1.937 5.807 1.99 5.732 2.022 L 6.061 2.788 Z M 6.61 2.329 L 7.305 2.789 C 7.529 2.451 7.65 2.054 7.652 1.647 L 6.818 1.644 L 5.985 1.641 C 5.985 1.722 5.96 1.801 5.916 1.869 L 6.61 2.329 Z M 6.818 1.644 L 7.652 1.644 L 7.652 1.515 L 6.818 1.515 L 5.985 1.515 L 5.985 1.644 L 6.818 1.644 Z M 6.818 1.515 L 7.652 1.515 C 7.652 1.334 7.723 1.161 7.851 1.033 L 7.262 0.444 L 6.673 -0.145 C 6.232 0.295 5.985 0.892 5.985 1.515 L 6.818 1.515 Z M 7.262 0.444 L 7.851 1.033 C 7.979 0.905 8.153 0.833 8.333 0.833 L 8.333 0 L 8.333 -0.833 C 7.71 -0.833 7.113 -0.586 6.673 -0.145 L 7.262 0.444 Z M 8.333 0 L 8.333 0.833 C 8.514 0.833 8.688 0.905 8.815 1.033 L 9.405 0.444 L 9.994 -0.145 C 9.554 -0.586 8.956 -0.833 8.333 -0.833 L 8.333 0 Z M 9.405 0.444 L 8.815 1.033 C 8.943 1.161 9.015 1.334 9.015 1.515 L 9.848 1.515 L 10.682 1.515 C 10.682 0.892 10.434 0.295 9.994 -0.145 L 9.405 0.444 Z M 9.848 1.515 L 9.015 1.515 L 9.015 1.583 L 9.848 1.583 L 10.682 1.583 L 10.682 1.515 L 9.848 1.515 Z M 9.848 1.583 L 9.015 1.587 C 9.017 1.993 9.137 2.39 9.362 2.729 L 10.056 2.269 L 10.751 1.808 C 10.706 1.741 10.682 1.661 10.682 1.58 L 9.848 1.583 Z M 10.056 2.269 L 9.362 2.729 C 9.586 3.067 9.904 3.333 10.278 3.493 L 10.606 2.727 L 10.934 1.961 C 10.86 1.929 10.796 1.876 10.751 1.808 L 10.056 2.269 Z M 10.606 2.727 L 10.27 3.49 C 10.65 3.658 11.073 3.708 11.482 3.634 L 11.334 2.814 L 11.185 1.994 C 11.103 2.009 11.019 1.999 10.943 1.965 L 10.606 2.727 Z M 11.334 2.814 L 11.482 3.634 C 11.892 3.559 12.27 3.364 12.568 3.073 L 11.985 2.477 L 11.402 1.882 C 11.343 1.94 11.267 1.979 11.185 1.994 L 11.334 2.814 Z M 11.985 2.477 L 12.574 3.067 L 12.62 3.021 L 12.03 2.432 L 11.441 1.843 L 11.396 1.888 L 11.985 2.477 Z M 12.03 2.432 L 12.62 3.021 C 12.683 2.957 12.758 2.907 12.841 2.873 L 12.522 2.103 L 12.203 1.333 C 11.918 1.451 11.659 1.625 11.441 1.843 L 12.03 2.432 Z M 12.522 2.103 L 12.841 2.873 C 12.924 2.838 13.013 2.821 13.102 2.821 L 13.102 1.987 L 13.102 1.154 C 12.794 1.154 12.488 1.215 12.203 1.333 L 12.522 2.103 Z M 13.102 1.987 L 13.102 2.821 C 13.192 2.821 13.281 2.838 13.363 2.873 L 13.682 2.103 L 14.002 1.333 C 13.717 1.215 13.411 1.154 13.102 1.154 L 13.102 1.987 Z M 13.682 2.103 L 13.363 2.873 C 13.446 2.907 13.521 2.957 13.585 3.021 L 14.174 2.432 L 14.764 1.843 C 14.546 1.625 14.287 1.451 14.002 1.333 L 13.682 2.103 Z M 14.174 2.432 L 13.585 3.021 C 13.649 3.085 13.699 3.16 13.733 3.243 L 14.503 2.924 L 15.273 2.604 C 15.155 2.319 14.982 2.06 14.763 1.842 L 14.174 2.432 Z M 14.503 2.924 L 13.733 3.243 C 13.768 3.325 13.785 3.414 13.785 3.504 L 14.619 3.504 L 15.452 3.504 C 15.452 3.195 15.391 2.89 15.273 2.604 L 14.503 2.924 Z M 14.619 3.504 L 13.785 3.504 C 13.785 3.593 13.768 3.682 13.733 3.765 L 14.503 4.084 L 15.273 4.403 C 15.391 4.118 15.452 3.812 15.452 3.504 L 14.619 3.504 Z M 14.503 4.084 L 13.733 3.765 C 13.699 3.848 13.649 3.923 13.585 3.986 L 14.174 4.576 L 14.763 5.165 C 14.982 4.947 15.155 4.688 15.273 4.403 L 14.503 4.084 Z M 14.174 4.576 L 13.585 3.987 L 13.54 4.032 L 14.129 4.621 L 14.718 5.21 L 14.764 5.165 L 14.174 4.576 Z M 14.129 4.621 L 13.533 4.038 C 13.242 4.336 13.047 4.714 12.972 5.124 L 13.792 5.272 L 14.612 5.421 C 14.627 5.339 14.666 5.263 14.725 5.204 L 14.129 4.621 Z M 13.792 5.272 L 12.972 5.124 C 12.898 5.533 12.948 5.956 13.116 6.336 L 13.879 6 L 14.641 5.664 C 14.608 5.587 14.598 5.503 14.612 5.421 L 13.792 5.272 Z M 13.879 6 L 13.045 6 L 13.045 6.061 L 13.879 6.061 L 14.712 6.061 L 14.712 6 L 13.879 6 Z M 13.879 6.061 L 13.113 6.389 C 13.273 6.762 13.539 7.081 13.877 7.305 L 14.338 6.61 L 14.798 5.916 C 14.73 5.871 14.677 5.807 14.645 5.732 L 13.879 6.061 Z M 14.338 6.61 L 13.877 7.305 C 14.216 7.529 14.613 7.65 15.019 7.652 L 15.023 6.818 L 15.026 5.985 C 14.945 5.985 14.865 5.96 14.798 5.916 L 14.338 6.61 Z M 15.023 6.818 L 15.023 7.652 L 15.152 7.652 L 15.152 6.818 L 15.152 5.985 L 15.023 5.985 L 15.023 6.818 Z M 15.152 6.818 L 15.152 7.652 C 15.332 7.652 15.506 7.723 15.634 7.851 L 16.223 7.262 L 16.812 6.673 C 16.372 6.232 15.774 5.985 15.152 5.985 L 15.152 6.818 Z M 16.223 7.262 L 15.634 7.851 C 15.761 7.979 15.833 8.153 15.833 8.333 L 16.667 8.333 L 17.5 8.333 C 17.5 7.71 17.253 7.113 16.812 6.673 L 16.223 7.262 Z M 16.667 8.333 L 15.833 8.333 C 15.833 8.514 15.761 8.688 15.634 8.815 L 16.223 9.405 L 16.812 9.994 C 17.253 9.554 17.5 8.956 17.5 8.333 L 16.667 8.333 Z M 16.223 9.405 L 15.634 8.815 C 15.506 8.943 15.332 9.015 15.152 9.015 L 15.152 9.848 L 15.152 10.682 C 15.774 10.682 16.372 10.434 16.812 9.994 L 16.223 9.405 Z M 15.152 9.848 L 15.152 9.015 L 15.083 9.015 L 15.083 9.848 L 15.083 10.682 L 15.152 10.682 L 15.152 9.848 Z M 15.083 9.848 L 15.08 9.015 C 14.674 9.017 14.277 9.137 13.938 9.362 L 14.398 10.056 L 14.858 10.751 C 14.926 10.706 15.005 10.682 15.087 10.682 L 15.083 9.848 Z M 14.398 10.056 L 13.938 9.362 C 13.599 9.586 13.333 9.904 13.173 10.278 L 13.939 10.606 L 14.705 10.934 C 14.737 10.86 14.791 10.796 14.858 10.751 L 14.398 10.056 Z" fill="currentColor" fill-rule="nonzero"></path>
</svg>